<svg xmlns="http://www.w3.org/2000/svg" viewBox="0 0 4995.82 925.71"><defs><style>.cls-1{fill:#fff;}</style></defs><g id="Layer_2" data-name="Layer 2"><g id="Layer_1-2" data-name="Layer 1"><rect class="cls-1" y="92.57" width="294.12" height="294.12"/><path class="cls-1" d="M641.87,318.56c-8.31,86.34-169.36,91.08-226.37,41.61C390.89,338.85,383,314.5,383,314.5l76.54-21.9s6.16,23.43,30.27,30.45c34.68,10.09,82.43,3.87,75.55-26.23-4.48-19.58-50.62-23.76-68.28-27.91-22.07-5.07-53.74-9.23-76.35-26.77-43.37-33.25-35.82-85.21-9.6-113.59C456.29,78.92,558.58,89,590,109.18c27,17.3,45.55,36.7,53.58,59.45L567.46,191.5S565.11,167,536.09,159c-31.23-8.62-75.06,1.93-61,29.87,7.27,14.08,42.26,17,86.4,29.25C583.78,224.37,649.12,243.3,641.87,318.56Z"/><path class="cls-1" d="M1098.61,391.33c-49.06,0-90.23-20.91-102.93-76.7-4.27-18.76-5.54-55.08-5.54-89L990,99.52h83.57l1.19,156.83c-.37,62,21.56,80.89,54.59,76.92,19.94-2.4,41.82-13.39,50.78-41.23,4.61-14.35,3.81-28.76,3.81-67.55l-.14-125h82.37V385.93l-79.9,0-.24-40.26s-20.75,45.64-87.44,45.64"/><path class="cls-1" d="M1742.94,160.23c-19.66,3.45-41.58,13.31-50.48,41-4.58,14.25-3.77,21.59-3.77,60.15L1688.8,386H1607V99.51h79.41l.23,41.36s20.76-44.84,86.92-45.36c32-.24,45.64,8.67,45.64,8.67l-31.3,65.6A62.39,62.39,0,0,0,1742.94,160.23Z"/><path class="cls-1" d="M1117.39,579c-19.66,3.45-41.59,13.31-50.48,41-4.58,14.25-3.78,21.59-3.78,60.15l.12,124.57H981.4V518.27h79.41l.23,41.37s20.75-44.84,86.92-45.36c32-.24,45.64,8.67,45.64,8.67l-31.3,65.6A62.39,62.39,0,0,0,1117.39,579Z"/><path class="cls-1" d="M1767.9,738.22c-8.32,86.33-169.36,91.08-226.37,41.61-24.61-21.32-32.55-45.67-32.55-45.67l76.55-21.9s6.15,23.43,30.26,30.45c34.68,10.09,82.44,3.87,75.56-26.23-4.48-19.58-50.62-23.76-68.28-27.91-22.07-5.08-53.74-9.23-76.35-26.77-43.37-33.25-35.83-85.21-9.6-113.6,45.19-49.63,147.49-39.51,178.91-19.36,27,17.3,45.55,36.69,53.58,59.45l-76.12,22.86s-2.36-24.49-31.37-32.49c-31.23-8.62-75.07,1.92-61,29.86,7.28,14.09,42.27,17,86.4,29.26C1709.81,644,1775.15,663,1767.9,738.22Z"/><path class="cls-1" d="M876.2,347.86V452.11h79.36V99.52H876.2v37.73s-28.88-40.62-75.37-44.14c-51.89-4-138.29,12.68-138.29,147.45,0,89.69,43.43,130.79,85,145.81,14.8,5.17,66,12.21,101.9-12.21A103.4,103.4,0,0,0,876.2,347.86ZM747.07,236.57c0-54,28.64-89.69,77.24-81.24,23.4,4.23,38.26,22,45.19,46.33a132,132,0,0,1,4.59,35.85c0,46.49-10.33,77.72-51.66,86.64C768,335.89,747.07,283.3,747.07,236.57Z"/><path class="cls-1" d="M1371.64,530.06c-35.92-24.41-87.1-17.37-101.9-12.2-41.55,15-85,56.11-85,145.8,0,134.77,86.4,151.44,138.29,147.45,46.49-3.52,75.37-44.14,75.37-44.14v37.74h79.36V452.11h-79.36V556.36A103.4,103.4,0,0,0,1371.64,530.06Zm-27,50c41.33,8.92,51.66,40.15,51.66,86.64,0,41.79-16,76.06-49.78,82.17-48.6,8.45-77.24-27.24-77.24-81.24C1269.28,620.93,1290.18,568.33,1344.64,580.08Z"/><path class="cls-1" d="M1572.49,237.24c-.21-62.18-3.23-88.43-33.75-115.67-23.65-21.1-53-29-94.83-29-60.77,0-112.26,18-125.78,76.31L1396.29,187c12.23-46.93,76.38-35,88.69-17.42,6.24,8.92,5.93,20.78,2.08,27.35-9.78,16.67-31,16.44-85.53,20.78-45.62,3.64-65.42,15.26-78,27.66-18.78,18.51-26.44,44.66-23.88,69.33,2.42,23.39,14.06,45.44,34.16,58.23,18.58,11.84,36.68,17.14,69.34,17.14,68.44,0,90.63-41.46,90.63-41.46l-.19,36.21h78.9Zm-100.22,76.51c-16.44,13.48-40.18,17.44-55.5,15.22-26.61-3.91-40.85-26.09-28.34-47.44,16.39-28,75.48-12.72,101.53-31.81C1491.64,283.58,1487.53,301.26,1472.27,313.75Z"/><path class="cls-1" d="M946.94,657.68c-.21-62.18-3.23-88.43-33.75-115.67-23.65-21.11-53-29-94.83-29-60.77,0-112.26,18-125.79,76.31l78.17,18.08c12.23-46.93,76.38-35,88.69-17.42,6.24,8.92,5.93,20.78,2.08,27.35-9.79,16.67-31,16.44-85.53,20.78-45.63,3.64-65.42,15.26-78,27.66-18.79,18.5-26.44,44.66-23.89,69.33,2.43,23.39,14.07,45.44,34.17,58.23,18.57,11.83,36.68,17.14,69.34,17.14,68.44,0,90.63-41.46,90.63-41.46L868,804.73l78.9,0ZM846.72,734.19c-16.44,13.47-40.18,17.44-55.5,15.21-26.61-3.9-40.85-26.08-28.34-47.43,16.39-28,75.47-12.72,101.53-31.81C866.09,704,862,721.7,846.72,734.19Z"/><path class="cls-1" d="M2013.21,267.24h-124.4c2.08,34.27,29.73,60.1,59.9,60.1,47.22,0,63.11-32.86,63.11-32.86l69.34,31.69s-29.47,66-129.24,65.27c-61-.47-102.74-25.82-128.54-69-23-38.75-28.11-120,3.22-166.24,30.64-44.84,73-63.16,121.65-63.16,57.12,0,92.36,19.72,117.95,62.45C2091.06,196.8,2089,267.7,2089,267.7Zm-5.08-56.82c-2.29-29.59-19.74-57.9-58.91-57.67-35,.23-56,26.91-59.72,57.67Z"/><path class="cls-1" d="M599.9,518.27,540.65,703.53,474.52,518.27H383.18l118.09,280c-28.9,54.5-76,42.19-76,42.19l-7,85s108.36,10.42,154.33-101.41L689.4,518.27Z"/><path class="cls-1" d="M1928,597h-15.63s-1.91-3.14-4.9-14.43A24,24,0,0,0,1885,564.18h-4.62V597l-12.91,0V519.08h26.23c21.32-.65,27.1,10.64,28.4,17.39,1.34,7-.46,15-5.18,20.21-4.1,4.26-13.62,5-13.62,5,7.71,1.48,13.67,8.37,17.23,19.66C1923.74,591.38,1928,597,1928,597Zm-18.22-55.82c-.37-5-4.3-11-14.25-10.87l-15.12.05v23.49h.78l15.27,0C1907.94,553.87,1910.21,546.38,1909.79,541.15Z"/><path class="cls-1" d="M1977.75,566.59c0,1.76-.09,3.42-.23,5v.1l-37.14.14s0,15.07,12.33,15.85c9.79.62,12.83-6.42,12.83-6.42l11.34,3.1s-5.32,13.6-23.13,13.55c-11.56,0-18.41-5.37-22.65-14-6.59-13.4-4.92-43.51,20.71-44.39C1973.59,538.79,1977.75,555.81,1977.75,566.59ZM1965,562.84s-.13-13.81-12.43-13.86c-11.38-.09-12.23,13.86-12.23,13.86Z"/><path class="cls-1" d="M2036.36,597l-13.78,0-.66-7.07s-4.54,8-18.53,8c-11.34,0-18.08-5.88-19.39-13.27-1.67-9.33,4.74-17.41,14-19.22,8.17-1.59,19.31-.9,22.91-5.09,1.48-1.72,1.44-4.55-.56-7.07-2.27-2.86-6.63-3.87-12.17-3.73-6.65.17-10.35,3-11.57,6.93l-10.74-2.62a18.76,18.76,0,0,1,4.68-8c6.56-6.4,19.51-7.35,28.67-5.13a20.35,20.35,0,0,1,9.61,5.34c5.51,6.38,4.17,13.41,4.41,22.62l.16,17.17ZM2022,569.82c-6.42,5.11-20.33,2-24.35,7.6-2.83,4-.72,8.64,4.23,10.25,8.2,2.67,20.12-3.49,20.12-13.11Z"/><path class="cls-1" d="M2044.35,597V519.18h11.92V597Z"/><path class="cls-1" d="M2142.74,566.59c0,1.76-.09,3.42-.23,5v.1l-37.14.14s0,15.07,12.33,15.85c9.79.62,12.83-6.42,12.83-6.42l11.34,3.1s-5.32,13.6-23.13,13.55c-11.57,0-18.41-5.37-22.65-14-6.59-13.4-4.92-43.51,20.71-44.39C2138.58,538.79,2142.74,555.81,2142.74,566.59ZM2130,562.84S2129.9,549,2117.6,549c-11.38-.09-12.23,13.86-12.23,13.86Z"/><path class="cls-1" d="M2195.48,583c-.72,10.16-10.91,14.71-21.74,14.8-21.41.23-25-14.66-25-14.66l12.21-2.64s.92,7.71,12.81,7.64c4.58,0,9.23-1.81,9.9-6.29,1-6.38-6.56-7.64-12-8.51-5.84-.94-13.47-2.28-18.22-7-5.47-5.38-8-28,20.25-27,11.77.4,18.57,5.55,21.09,13.62l-11.09,3.26s-1.37-7.35-10.6-7.54c-8.67-.17-12.35,3.64-11.32,8.27,1.21,5.49,10.72,5.84,19.46,7.88C2191.18,567.21,2196.13,573.93,2195.48,583Z"/><path class="cls-1" d="M2217.91,582.78c1,6.79,11.51,3.68,11.51,3.68l2.41,10.45c-26.94,4.85-26-9.09-26-18.7,0-.14,0-.28,0-.4v-22.7l.11-5-8.52.13v-9.62l8.55.1-.09-6.61V522.29l11.91-3.15-.09,15.43-.13,6.11,5.9-.09h7v9.64l-6.38,0-6.5-.08.12,5.22v15.08C2217.7,576.83,2217.76,581.77,2217.91,582.78Z"/><path class="cls-1" d="M2289.6,597l-13.78,0-.67-7.07s-4.54,8-18.53,8c-11.34,0-18.07-5.88-19.39-13.27-1.66-9.33,4.75-17.41,14.06-19.22,8.17-1.59,19.31-.9,22.91-5.09,1.48-1.72,1.44-4.55-.56-7.07-2.28-2.86-6.63-3.87-12.17-3.73-6.66.17-10.35,3-11.57,6.93l-10.74-2.62a18.64,18.64,0,0,1,4.68-8c6.56-6.4,19.51-7.35,28.66-5.13a20.3,20.3,0,0,1,9.61,5.34c5.51,6.38,4.18,13.41,4.41,22.62l.16,17.17Zm-14.38-27.15c-6.43,5.11-20.33,2-24.35,7.6-2.84,4-.72,8.64,4.23,10.25,8.19,2.67,20.12-3.49,20.12-13.11Z"/><path class="cls-1" d="M2313.87,582.78c1,6.79,11.51,3.68,11.51,3.68l2.41,10.45c-26.95,4.85-26-9.09-26-18.7,0-.14,0-.28,0-.4v-22.7l.11-5-8.52.13v-9.62l8.54.1-.09-6.61,0-11.85,11.9-3.15-.08,15.43-.14,6.11,5.91-.09h6.95v9.64l-6.39,0-6.49-.08.12,5.22v15.08C2313.66,576.83,2313.72,581.77,2313.87,582.78Z"/><path class="cls-1" d="M2380.34,566.59c0,1.76-.09,3.42-.23,5v.1l-37.14.14s0,15.07,12.33,15.85c9.79.62,12.83-6.42,12.83-6.42l11.34,3.1s-5.32,13.6-23.13,13.55c-11.56,0-18.41-5.37-22.65-14-6.59-13.4-4.92-43.51,20.71-44.39C2376.18,538.79,2380.34,555.81,2380.34,566.59Zm-12.71-3.75S2367.5,549,2355.2,549c-11.38-.09-12.23,13.86-12.23,13.86Z"/><path class="cls-1" d="M1952.11,674.66v24.88h-11.88l-.23-31.09c0-11-3.37-17.4-12.06-16.94-4.85.25-10.13,3-11.61,8.19a24.25,24.25,0,0,0-.76,4.44c-.14,1.52-.2,3.17-.21,4.9l0,30.5H1904v0l-.15-19.91-.08-11.14c0-11-3.37-17.4-12.06-16.94-4.86.25-10.12,3.65-11.61,8.84a36,36,0,0,0-1,9.34l0,29.85-11.55,0-.07-56.41h11.18l.06,8.16s3.63-8.81,16.81-9.14a21.2,21.2,0,0,1,8.22,1.33,16.55,16.55,0,0,1,8.89,8.59.42.42,0,0,0,0,.1c1.53-3,6.17-10,18.56-10,9.07,0,16.56,3.94,19.24,13.07C1951.77,659.46,1952.11,668,1952.11,674.66Z"/><path class="cls-1" d="M2012.68,699.78l-13.78,0-.67-7.07s-4.53,8-18.53,8c-11.34,0-18.07-5.88-19.39-13.27-1.66-9.33,4.75-17.41,14.06-19.22,8.17-1.59,19.31-.9,22.91-5.09,1.48-1.71,1.44-4.55-.56-7.07-2.28-2.86-6.63-3.87-12.17-3.73-6.65.17-10.35,3-11.57,6.93l-10.74-2.62a18.64,18.64,0,0,1,4.68-8c6.56-6.39,19.51-7.35,28.66-5.13a20.3,20.3,0,0,1,9.61,5.34c5.51,6.38,4.18,13.41,4.41,22.62l.16,17.17Zm-14.38-27.15c-6.43,5.11-20.33,2-24.35,7.6-2.83,3.95-.72,8.64,4.23,10.25,8.19,2.67,20.12-3.49,20.12-13.11Z"/><path class="cls-1" d="M2069.51,622.1v77.62h-11.84v-7s-3.75,7.13-14.34,7.91c-7.17.56-16.69-2-21.18-13.73-.19-.47-.33-.93-.51-1.39a47.39,47.39,0,0,1-2-14.52,41.79,41.79,0,0,1,2.13-14.11.61.61,0,0,1,.09-.28c4.53-12.35,14.94-14.48,21.05-14.25a18.08,18.08,0,0,1,14.75,8.24V622.1Zm-12,48.52c0-12-5.36-17.2-10.82-18.45-10.22-2.36-15.17,6.1-15.17,18.22,0,11.93,4,21.74,15.21,19.47C2053.69,688.48,2057.53,682.05,2057.53,670.62Z"/><path class="cls-1" d="M2127,669.4c0,1.76-.09,3.42-.23,5v.1l-37.14.14s0,15.07,12.33,15.85c9.79.62,12.83-6.42,12.83-6.42l11.34,3.1s-5.32,13.6-23.13,13.55c-11.56,0-18.41-5.37-22.65-14-6.59-13.4-4.92-43.51,20.71-44.39C2122.83,641.6,2127,658.62,2127,669.4Zm-12.71-3.75s-.13-13.81-12.43-13.86c-11.38-.09-12.23,13.86-12.23,13.86Z"/><path class="cls-1" d="M1891.81,755.66c-7.1.62-11.1,6.45-12,12.44-.32,2.14-.19,9.39-.19,9.39l-.18,24.92-11.84,0-.07-56.41h12l0,7.79s3.7-8.18,14.76-8.77a19.89,19.89,0,0,1,10.89,2.61c-2.15,3.44-3.87,6.16-6,9.59C1899.21,757.18,1896.66,755.23,1891.81,755.66Z"/><path class="cls-1" d="M1955.19,772.21c0,1.76-.09,3.42-.23,5v.1l-37.14.14s0,15.07,12.32,15.85c9.79.62,12.84-6.42,12.84-6.42l11.33,3.1s-5.32,13.6-23.13,13.55c-11.56,0-18.41-5.37-22.64-14-6.6-13.4-4.92-43.51,20.7-44.39C1951,744.41,1955.19,761.43,1955.19,772.21Zm-12.72-3.75s-.12-13.81-12.42-13.86c-11.38-.09-12.23,13.86-12.23,13.86Z"/><path class="cls-1" d="M2013.8,802.59l-13.78,0-.67-7.07s-4.54,8-18.53,8c-11.34,0-18.07-5.88-19.39-13.27-1.66-9.33,4.75-17.41,14-19.22,8.18-1.59,19.32-.9,22.92-5.09,1.48-1.71,1.44-4.55-.56-7.07-2.28-2.86-6.63-3.87-12.17-3.73-6.66.17-10.35,3-11.57,6.93l-10.74-2.62a18.64,18.64,0,0,1,4.68-8c6.56-6.39,19.51-7.35,28.66-5.13a20.3,20.3,0,0,1,9.61,5.34c5.51,6.38,4.18,13.41,4.41,22.62l.16,17.17Zm-14.38-27.15c-6.43,5.11-20.33,2-24.35,7.6-2.84,4-.72,8.64,4.23,10.25,8.19,2.67,20.12-3.49,20.12-13.11Z"/><path class="cls-1" d="M2021.78,802.61V724.8h11.93v77.81Z"/><path class="cls-1" d="M2120.18,772.21c0,1.76-.09,3.42-.23,5v.1l-37.14.14s0,15.07,12.32,15.85c9.79.62,12.84-6.42,12.84-6.42l11.33,3.1s-5.32,13.6-23.13,13.55c-11.56,0-18.41-5.37-22.64-14-6.6-13.4-4.92-43.51,20.7-44.39C2116,744.41,2120.18,761.43,2120.18,772.21Zm-12.72-3.75s-.12-13.81-12.42-13.86c-11.38-.09-12.23,13.86-12.23,13.86Z"/><path class="cls-1" d="M2178.78,802.59l-13.77,0-.67-7.07s-4.54,8-18.53,8c-11.34,0-18.07-5.88-19.39-13.27-1.66-9.33,4.75-17.41,14-19.22,8.18-1.59,19.31-.9,22.92-5.09,1.48-1.71,1.43-4.55-.56-7.07-2.28-2.86-6.63-3.87-12.17-3.73-6.66.17-10.35,3-11.58,6.93l-10.74-2.62a18.72,18.72,0,0,1,4.69-8c6.55-6.39,19.51-7.35,28.66-5.13a20.3,20.3,0,0,1,9.61,5.34c5.51,6.38,4.18,13.41,4.41,22.62l.16,17.17Zm-14.37-27.15c-6.43,5.11-20.33,2-24.35,7.6-2.84,4-.72,8.64,4.22,10.25,8.2,2.67,20.13-3.49,20.13-13.11Z"/><path class="cls-1" d="M2230,788.65c-.72,10.16-10.91,14.71-21.74,14.8-21.41.23-25-14.66-25-14.66l12.21-2.63s.92,7.7,12.81,7.63c4.58,0,9.23-1.81,9.9-6.29,1-6.38-6.57-7.63-12-8.51-5.84-.94-13.47-2.28-18.22-7-5.47-5.38-8-28,20.25-27,11.77.4,18.57,5.55,21.09,13.62l-11.09,3.26s-1.37-7.35-10.6-7.53c-8.67-.18-12.35,3.63-11.32,8.26,1.21,5.49,10.72,5.84,19.46,7.88C2225.7,772.83,2230.65,779.56,2230,788.65Z"/><path class="cls-1" d="M2290,746l-21.73,58.38c-8.14,20.86-27,19.24-27,19.24l1.16-12.07s12.11.5,15-11.15L2235.4,746h12.95l14.85,38.16h.28L2276.84,746Z"/><path class="cls-1" d="M2711.18,829.81l-26.43-90.18-.18-.74c0-1.23.68-1.85,2-1.85h17.56a2.44,2.44,0,0,1,2.59,1.85l15.34,61.72c.12.37.3.56.55.56s.43-.19.56-.56l16.07-61.72a2.44,2.44,0,0,1,2.59-1.85h15.34a2.44,2.44,0,0,1,2.59,1.85l16.45,61.72c.12.37.3.56.55.56s.43-.19.56-.56l16.44-61.72a2.44,2.44,0,0,1,2.59-1.85l17.37.37a1.79,1.79,0,0,1,1.57.65,2.28,2.28,0,0,1,.28,1.75l-26.61,90a2.31,2.31,0,0,1-2.4,1.85h-17.75a2.42,2.42,0,0,1-2.58-1.85L2750,773.45c-.12-.37-.31-.56-.55-.56s-.43.19-.56.56l-15,56.36a2.42,2.42,0,0,1-2.58,1.85h-17.56A2.43,2.43,0,0,1,2711.18,829.81Z"/><path class="cls-1" d="M2851.82,829.81l-26.43-90.18-.18-.74c0-1.23.68-1.85,2-1.85h17.56a2.44,2.44,0,0,1,2.59,1.85l15.34,61.72c.12.37.3.56.55.56s.43-.19.55-.56l16.08-61.72a2.44,2.44,0,0,1,2.59-1.85h15.34a2.44,2.44,0,0,1,2.59,1.85l16.45,61.72c.12.37.3.56.55.56s.43-.19.55-.56l16.45-61.72A2.44,2.44,0,0,1,2937,737l17.37.37a1.8,1.8,0,0,1,1.57.65,2.28,2.28,0,0,1,.28,1.75l-26.61,90a2.31,2.31,0,0,1-2.4,1.85h-17.75a2.42,2.42,0,0,1-2.58-1.85l-16.27-56.36c-.12-.37-.31-.56-.55-.56s-.44.19-.56.56l-15,56.36a2.42,2.42,0,0,1-2.58,1.85h-17.56A2.43,2.43,0,0,1,2851.82,829.81Z"/><path class="cls-1" d="M2992.46,829.81,2966,739.63l-.18-.74c0-1.23.67-1.85,2-1.85h17.56a2.44,2.44,0,0,1,2.59,1.85l15.33,61.72c.13.37.31.56.56.56s.43-.19.55-.56l16.08-61.72a2.44,2.44,0,0,1,2.59-1.85h15.34a2.44,2.44,0,0,1,2.59,1.85l16.45,61.72c.12.37.3.56.55.56s.43-.19.55-.56l16.45-61.72a2.44,2.44,0,0,1,2.59-1.85l17.37.37a1.8,1.8,0,0,1,1.57.65,2.28,2.28,0,0,1,.28,1.75l-26.61,90a2.32,2.32,0,0,1-2.41,1.85h-17.74a2.42,2.42,0,0,1-2.58-1.85l-16.27-56.36c-.12-.37-.31-.56-.55-.56s-.44.19-.56.56l-15,56.36a2.42,2.42,0,0,1-2.58,1.85h-17.56A2.43,2.43,0,0,1,2992.46,829.81Z"/><path class="cls-1" d="M3109.82,828.34a13.13,13.13,0,0,1,9.42-22.55,12.43,12.43,0,0,1,9.33,3.7,12.9,12.9,0,0,1,3.61,9.42,12.76,12.76,0,0,1-3.7,9.43,12.53,12.53,0,0,1-9.24,3.69A12.76,12.76,0,0,1,3109.82,828.34Z"/><path class="cls-1" d="M3171.27,829.35q-8.79-3.42-13.59-9.42a20.94,20.94,0,0,1-4.8-13.4v-1.66a2.17,2.17,0,0,1,.64-1.58,2.14,2.14,0,0,1,1.57-.64h16.27a2.14,2.14,0,0,1,1.57.64,2.17,2.17,0,0,1,.65,1.58v.36q0,4.63,5.08,8t12.84,3.42q7.39,0,12-3.05t4.62-7.67a6.88,6.88,0,0,0-3.78-6.37,60.93,60.93,0,0,0-12.29-4.53l-7-2.22a104.62,104.62,0,0,1-15.89-5.91,31.71,31.71,0,0,1-10.9-8.6q-4.44-5.45-4.44-14A24.51,24.51,0,0,1,3164,743.78q10.16-7.66,26.79-7.67a50.41,50.41,0,0,1,19.78,3.61,30.37,30.37,0,0,1,13.12,10,24.11,24.11,0,0,1,4.62,14.51,2.15,2.15,0,0,1-.65,1.57,2.13,2.13,0,0,1-1.57.64h-15.71a2.13,2.13,0,0,1-1.57-.64,2.15,2.15,0,0,1-.65-1.57q0-4.82-4.71-8t-12.84-3.24q-7.22,0-11.74,2.68a8.32,8.32,0,0,0-4.53,7.49q0,4.42,4.35,6.74t14.51,5.09l4.06,1.1a133,133,0,0,1,16.45,6,32.08,32.08,0,0,1,11.27,8.5q4.62,5.46,4.62,14.14,0,13.13-10.35,20.61t-27.53,7.48A56,56,0,0,1,3171.27,829.35Z"/><path class="cls-1" d="M3306.92,737.87a2.14,2.14,0,0,1,1.57-.65h17a2.22,2.22,0,0,1,2.22,2.22V864.37a2.17,2.17,0,0,1-.65,1.58,2.13,2.13,0,0,1-1.57.64h-17a2.2,2.2,0,0,1-2.22-2.22v-40.1c0-.37-.12-.58-.37-.65a.79.79,0,0,0-.74.28,26.55,26.55,0,0,1-20.88,9.24q-13.68,0-22.73-6.84t-13.13-19q-3.14-9.43-3.14-22.55a74.1,74.1,0,0,1,3.33-23.1q4.07-12.2,13.12-19t22.18-6.83q13.11,0,21.25,9.61c.25.36.49.49.74.36a.72.72,0,0,0,.37-.73v-5.55A2.11,2.11,0,0,1,3306.92,737.87Zm-.84,46.48q0-13.86-4.25-21.44-5.17-8.86-14.6-8.87-10.53,0-15.7,9.06-4.44,8.31-4.44,21.25,0,14.05,5.54,22.55a17,17,0,0,0,14.79,7.76q9,0,14-8.13Q3306.08,799,3306.08,784.35Z"/><path class="cls-1" d="M3408.19,737.87a2.14,2.14,0,0,1,1.57-.65h16.82a2.22,2.22,0,0,1,2.22,2.22v90a2.15,2.15,0,0,1-.65,1.57,2.13,2.13,0,0,1-1.57.64h-16.82a2.13,2.13,0,0,1-1.57-.64,2.15,2.15,0,0,1-.65-1.57v-5.92a.75.75,0,0,0-.37-.74c-.24-.12-.49,0-.73.37q-7.59,9.8-22.74,9.8-14,0-23.56-8.14t-9.52-23.1V739.44a2.22,2.22,0,0,1,2.22-2.22h17a2.22,2.22,0,0,1,2.22,2.22v56.18q0,8.7,4.53,13.87t12.66,5.17q8.31,0,13.3-5.17t5-13.87V739.44A2.15,2.15,0,0,1,3408.19,737.87Z"/><path class="cls-1" d="M3508.26,739.81A32.18,32.18,0,0,1,3521.94,751a28.28,28.28,0,0,1,4.81,16.17v62.29a2.2,2.2,0,0,1-2.22,2.21h-17a2.19,2.19,0,0,1-2.22-2.21v-5.92c0-.37-.13-.58-.37-.65a.78.78,0,0,0-.74.28q-9.06,10-26.24,10-13.87,0-22.83-7t-9-20.89q0-14.41,10.07-22.45t28.37-8h19.77a.82.82,0,0,0,.93-.92v-4.44q0-7.2-4.25-11.18t-12.76-4q-7,0-11.36,2.49a10.82,10.82,0,0,0-5.45,6.93c-.37,1.48-1.24,2.1-2.59,1.85L3451,763.28a4,4,0,0,1-1.57-.65,1.05,1.05,0,0,1-.46-1.2q1.47-11.26,12.11-18.48t26.7-7.2A48.75,48.75,0,0,1,3508.26,739.81Zm-9.42,71.52q6.47-4.8,6.47-12.19v-8.69a.82.82,0,0,0-.93-.92h-15.52q-9.8,0-15.43,3.69a11.88,11.88,0,0,0-5.64,10.54,10.73,10.73,0,0,0,4.34,9.14q4.35,3.24,11.18,3.24A25.29,25.29,0,0,0,3498.84,811.33Z"/><path class="cls-1" d="M3602.52,738.52a2.29,2.29,0,0,1,1.1,2.77l-3.14,16.63c-.12,1.48-1,1.91-2.58,1.3a20.39,20.39,0,0,0-6.47-.93,28.28,28.28,0,0,0-3.7.19,19.11,19.11,0,0,0-12.94,5.45q-5.17,5.09-5.17,13.21v52.31A2.15,2.15,0,0,1,3569,831a2.13,2.13,0,0,1-1.57.64h-17a2.2,2.2,0,0,1-2.22-2.21v-90a2.11,2.11,0,0,1,.65-1.57,2.14,2.14,0,0,1,1.57-.65h17a2.22,2.22,0,0,1,2.22,2.22v8.32c0,.49.09.77.28.83s.39-.09.64-.46q7.77-12,21.63-12A21.44,21.44,0,0,1,3602.52,738.52Z"/><path class="cls-1" d="M3696.22,784.17l-.19,5.73a2,2,0,0,1-2.22,2.21H3636a.82.82,0,0,0-.93.93q.55,6.09,1.67,8.31,4.42,13.32,21.62,13.49a23.28,23.28,0,0,0,20-10.34,2.17,2.17,0,0,1,1.85-1.11,1.76,1.76,0,0,1,1.29.55l11.46,9.43a2,2,0,0,1,.55,3,37.72,37.72,0,0,1-15.24,12.57,49.48,49.48,0,0,1-21.17,4.44q-14.42,0-24.48-6.47a37.2,37.2,0,0,1-14.7-18.11q-4.24-10-4.25-27.73,0-10.71,2.22-17.37a37.11,37.11,0,0,1,14-20.42q10.24-7.49,24.67-7.48,36.4,0,41,38.07A66.21,66.21,0,0,1,3696.22,784.17Zm-53.14-26.52a18.07,18.07,0,0,0-6.37,9.51,31.85,31.85,0,0,0-1.48,8.14c-.25.61,0,.92.74.92h37.51a.82.82,0,0,0,.93-.92,35.36,35.36,0,0,0-1.11-7,18,18,0,0,0-6.56-10.35,19.87,19.87,0,0,0-12.29-3.69A18.34,18.34,0,0,0,3643.08,757.65Z"/><path class="cls-1" d="M3709,867.79a3.07,3.07,0,0,1-.37-1.57v-13.3a2.17,2.17,0,0,1,.64-1.58,2.14,2.14,0,0,1,1.57-.64h.19a43.65,43.65,0,0,0,11.83-1.57,13.76,13.76,0,0,0,7-5.27q2.78-3.89,5-11.64a1.71,1.71,0,0,0,0-1.11l-30.49-91.48a2,2,0,0,1-.19-.93c0-1.11.62-1.66,1.85-1.66h18.11a2.44,2.44,0,0,1,2.59,1.85l18.48,65.05c.12.37.3.56.55.56s.43-.19.56-.56l18.48-65.05a2.44,2.44,0,0,1,2.59-1.85h17.55a1.79,1.79,0,0,1,1.57.65,2.26,2.26,0,0,1,.1,1.94l-32.53,97.21q-4.62,13.11-9.06,19.59a24.27,24.27,0,0,1-12.1,9.24q-7.67,2.77-21.72,2.77h-1.29A1.06,1.06,0,0,1,3709,867.79Z"/><path class="cls-1" d="M3854.6,739.81A32.3,32.3,0,0,1,3868.28,751a28.27,28.27,0,0,1,4.8,16.17v62.29a2.15,2.15,0,0,1-.65,1.57,2.13,2.13,0,0,1-1.57.64h-17a2.13,2.13,0,0,1-1.57-.64,2.15,2.15,0,0,1-.65-1.57v-5.92c0-.37-.12-.58-.37-.65a.8.8,0,0,0-.74.28q-9,10-26.24,10-13.86,0-22.82-7t-9-20.89q0-14.41,10.08-22.45t28.36-8h19.78a.82.82,0,0,0,.92-.92v-4.44q0-7.2-4.25-11.18t-12.75-4q-7,0-11.37,2.49a10.85,10.85,0,0,0-5.45,6.93c-.37,1.48-1.23,2.1-2.58,1.85l-17.93-2.22a3.92,3.92,0,0,1-1.57-.65,1,1,0,0,1-.46-1.2q1.47-11.26,12.1-18.48t26.71-7.2A48.75,48.75,0,0,1,3854.6,739.81Zm-9.43,71.52q6.48-4.8,6.47-12.19v-8.69a.82.82,0,0,0-.92-.92h-15.53q-9.8,0-15.43,3.69a11.87,11.87,0,0,0-5.63,10.54,10.7,10.7,0,0,0,4.34,9.14q4.34,3.24,11.18,3.24A25.24,25.24,0,0,0,3845.17,811.33Z"/><path class="cls-1" d="M3948.85,738.52a2.28,2.28,0,0,1,1.11,2.77l-3.14,16.63c-.13,1.48-1,1.91-2.59,1.3a20.35,20.35,0,0,0-6.47-.93,28.21,28.21,0,0,0-3.69.19,19.09,19.09,0,0,0-12.94,5.45Q3916,769,3916,777.14v52.31a2.2,2.2,0,0,1-2.22,2.21h-17a2.19,2.19,0,0,1-2.21-2.21v-90a2.2,2.2,0,0,1,2.21-2.22h17a2.22,2.22,0,0,1,2.22,2.22v8.32c0,.49.09.77.27.83s.4-.09.65-.46q7.76-12,21.62-12A21.44,21.44,0,0,1,3948.85,738.52Z"/><path class="cls-1" d="M4021.39,702.94a2.14,2.14,0,0,1,1.57-.65h17a2.22,2.22,0,0,1,2.22,2.22V829.45a2.15,2.15,0,0,1-.65,1.57,2.13,2.13,0,0,1-1.57.64h-17a2.13,2.13,0,0,1-1.57-.64,2.15,2.15,0,0,1-.65-1.57V823.9a.74.74,0,0,0-.37-.74c-.25-.12-.49,0-.74.37q-8.13,9.62-21.25,9.61t-22.18-6.84q-9-6.82-13.12-19a75.19,75.19,0,0,1-3.32-23.1q0-13.12,3.14-22.55,4.07-12.2,13.12-19t22.73-6.83a26.55,26.55,0,0,1,20.88,9.24.76.76,0,0,0,.74.27c.25-.06.37-.27.37-.64V704.51A2.15,2.15,0,0,1,4021.39,702.94Zm-.83,81.41q0-14.42-4.62-22-5-8.13-14.05-8.13a17,17,0,0,0-14.78,7.76q-5.55,8.13-5.55,22.55,0,12.93,4.44,21.25,5.17,8.87,15.71,8.87,9.42,0,14.6-8.87Q4020.56,798.22,4020.56,784.35Z"/><path class="cls-1" d="M4080.16,829.35a31.7,31.7,0,0,1-13.59-9.42,20.94,20.94,0,0,1-4.8-13.4v-1.66a2.2,2.2,0,0,1,2.22-2.22h16.26a2.13,2.13,0,0,1,1.57.64,2.17,2.17,0,0,1,.65,1.58v.36q0,4.63,5.08,8t12.85,3.42q7.38,0,12-3.05T4117,806a6.89,6.89,0,0,0-3.79-6.37,60.69,60.69,0,0,0-12.29-4.53l-7-2.22a104.37,104.37,0,0,1-15.9-5.91,31.8,31.8,0,0,1-10.9-8.6q-4.44-5.45-4.44-14a24.51,24.51,0,0,1,10.17-20.61q10.16-7.66,26.8-7.67a50.4,50.4,0,0,1,19.77,3.61,30.31,30.31,0,0,1,13.12,10,24.11,24.11,0,0,1,4.62,14.51,2.2,2.2,0,0,1-2.21,2.21h-15.71a2.2,2.2,0,0,1-2.22-2.21q0-4.82-4.71-8t-12.85-3.24c-4.8,0-8.72.9-11.73,2.68a8.32,8.32,0,0,0-4.53,7.49c0,2.95,1.44,5.2,4.34,6.74s7.73,3.24,14.51,5.09l4.06,1.1a132.41,132.41,0,0,1,16.45,6,32.11,32.11,0,0,1,11.28,8.5q4.62,5.46,4.62,14.14,0,13.13-10.35,20.61t-27.54,7.48A56,56,0,0,1,4080.16,829.35Z"/><path class="cls-1" d="M4160.27,828.34a13.13,13.13,0,0,1,9.43-22.55,12.43,12.43,0,0,1,9.33,3.7,12.94,12.94,0,0,1,3.61,9.42,12.8,12.8,0,0,1-3.7,9.43,12.57,12.57,0,0,1-9.24,3.69A12.8,12.8,0,0,1,4160.27,828.34Z"/><path class="cls-1" d="M4219.41,825.84A37.85,37.85,0,0,1,4205,806.16q-3-8.32-3-22.18,0-13.31,3-21.81a35.88,35.88,0,0,1,14.32-19.31q10.44-7.11,24.67-7.11,14.42,0,25.14,7.2t14.23,18.12a33.81,33.81,0,0,1,1.29,5.91v.37a2.13,2.13,0,0,1-2,2.22L4266,772h-.37a2.22,2.22,0,0,1-2.22-1.85,4.63,4.63,0,0,0-.19-1.48c-.24-1-.49-1.85-.73-2.59a16,16,0,0,0-6.66-8.5,20.87,20.87,0,0,0-11.83-3.32,19.58,19.58,0,0,0-11.92,3.6,17.4,17.4,0,0,0-6.56,9.89q-1.85,5.91-1.84,16.45a66.12,66.12,0,0,0,1.66,16.44,19.41,19.41,0,0,0,6.65,10.26,18.79,18.79,0,0,0,12,3.79,20.4,20.4,0,0,0,12.11-3.6,16.23,16.23,0,0,0,6.56-9.71,2.06,2.06,0,0,0,.19-.92.77.77,0,0,0,.18-.56c.37-1.47,1.23-2.09,2.59-1.84l16.63,2.58a3.05,3.05,0,0,1,1.57.84,1.87,1.87,0,0,1,.46,1.75c-.37,2-.67,3.39-.92,4.25a33,33,0,0,1-14.23,18.76q-10.73,6.93-25.14,6.93Q4229.77,833.14,4219.41,825.84Z"/><path class="cls-1" d="M4316.9,825.75a39.06,39.06,0,0,1-14.69-20.52,74.39,74.39,0,0,1-.19-42.13A38.07,38.07,0,0,1,4316.81,743q10.53-7.2,25.32-7.2,14,0,24.3,7.2a38.55,38.55,0,0,1,14.51,20,60,60,0,0,1,3.33,21.07,66.22,66.22,0,0,1-3.15,21.07,39.71,39.71,0,0,1-14.6,20.61q-10.35,7.49-24.58,7.48Q4327.35,833.14,4316.9,825.75Zm36.78-15a21.9,21.9,0,0,0,7.12-10.91,55,55,0,0,0,1.84-15.52q0-10-1.84-15.52a20.09,20.09,0,0,0-7-10.81,19.54,19.54,0,0,0-12.2-3.79,19,19,0,0,0-11.82,3.79,21,21,0,0,0-7.21,10.81,66,66,0,0,0,0,31,20.3,20.3,0,0,0,7.11,10.91,19.65,19.65,0,0,0,12.29,3.88A18.32,18.32,0,0,0,4353.68,810.78Z"/><path class="cls-1" d="M4528,744.34q8,8.6,8,23.93v61.18a2.2,2.2,0,0,1-2.22,2.21H4517a2.13,2.13,0,0,1-1.57-.64,2.15,2.15,0,0,1-.65-1.57V772.71q0-8.51-4.52-13.49t-12.11-5a16.41,16.41,0,0,0-12.38,5q-4.81,5-4.81,13.3v56.93a2.19,2.19,0,0,1-2.21,2.21h-16.82a2.2,2.2,0,0,1-2.22-2.21V772.71q0-8.51-4.62-13.49a15.83,15.83,0,0,0-12.2-5A15.95,15.95,0,0,0,4426,769.38v60.07a2.19,2.19,0,0,1-2.21,2.21h-17a2.19,2.19,0,0,1-2.21-2.21v-90a2.2,2.2,0,0,1,2.21-2.22h17a2.2,2.2,0,0,1,2.21,2.22v6.1a.75.75,0,0,0,.37.74c.25.12.5,0,.74-.37a24.59,24.59,0,0,1,10.08-7.67,34.65,34.65,0,0,1,13.39-2.49,33,33,0,0,1,15.9,3.69A25.27,25.27,0,0,1,4477,750.16c.37.49.8.49,1.3,0a25.24,25.24,0,0,1,11.27-10.9,36.21,36.21,0,0,1,16.08-3.51Q4519.91,735.75,4528,744.34Z"/><path class="cls-1" d="M2685.47,279.52a3,3,0,0,1-.9-2.19V103.38a3.07,3.07,0,0,1,3.09-3.09h30.1a3.07,3.07,0,0,1,3.09,3.09v174a3.07,3.07,0,0,1-3.09,3.09h-30.1A3,3,0,0,1,2685.47,279.52Z"/><path class="cls-1" d="M2852.08,158.7q12.61,12.62,12.61,34.23v84.4a3.07,3.07,0,0,1-3.09,3.09h-30.1a3.07,3.07,0,0,1-3.09-3.09V200.39q0-10.29-5.79-16.73t-15.31-6.43q-9.53,0-15.31,6.43t-5.79,16.73v76.94a3.07,3.07,0,0,1-3.09,3.09H2753a3.07,3.07,0,0,1-3.08-3.09V151.24a3.07,3.07,0,0,1,3.08-3.09h30.11a3.07,3.07,0,0,1,3.09,3.09v9a1,1,0,0,0,.51,1,.51.51,0,0,0,.77-.26q10.56-14.93,31.4-14.93Q2839.47,146.09,2852.08,158.7Z"/><path class="cls-1" d="M2972.9,101.19a3,3,0,0,1,2.18-.9h30.11a3.07,3.07,0,0,1,3.09,3.09v174a3.07,3.07,0,0,1-3.09,3.09h-30.11a3.07,3.07,0,0,1-3.08-3.09v-8.49c0-.52-.18-.82-.52-.9a1.06,1.06,0,0,0-1,.38q-10.8,14.16-29.59,14.16-18,0-31-10t-18.65-27.53q-4.38-13.38-4.38-31.14,0-18.27,4.63-31.91,5.93-16.46,18.66-26.12t31.52-9.65q18.52,0,28.82,12.87c.34.52.69.69,1,.52a1,1,0,0,0,.52-1V103.38A3,3,0,0,1,2972.9,101.19Zm-1.16,113.09q0-17.24-5.66-27-5.92-10-17.24-10-12.11,0-18.27,10-6.43,10-6.44,27.27,0,15.45,5.41,25.73,6.42,11.07,19,11.07,11.58,0,18-11.07Q2971.73,230.76,2971.74,214.28Z"/><path class="cls-1" d="M3040.57,127.44a19.72,19.72,0,0,1-5.79-14.54q0-9,5.66-14.67t14.67-5.66q9,0,14.67,5.66t5.66,14.67a20.57,20.57,0,0,1-34.87,14.54Zm-3.09,152.08a3,3,0,0,1-.9-2.19V151a3.07,3.07,0,0,1,3.09-3.08h30.11a3.09,3.09,0,0,1,3.09,3.08V277.33a3.09,3.09,0,0,1-3.09,3.09h-30.11A3,3,0,0,1,3037.48,279.52Z"/><path class="cls-1" d="M3183.77,151.88q13.13,5.79,20.45,15.83a37,37,0,0,1,7.34,22.39v87.23a3.07,3.07,0,0,1-3.09,3.09h-30.11a3.07,3.07,0,0,1-3.08-3.09v-8.49a1,1,0,0,0-.52-1c-.34-.17-.69,0-1,.51q-10.8,14.16-34.74,14.16-20.07,0-32.42-9.78t-12.35-28.82q0-19.81,13.9-30.75t39.62-10.94H3174a1.14,1.14,0,0,0,1.29-1.29v-5.66q0-8.49-5.15-13.25t-15.44-4.76q-8,0-13.25,2.83a13.23,13.23,0,0,0-6.82,8c-.52,1.89-1.63,2.74-3.35,2.57l-31.13-4.12c-2.06-.34-3-1.11-2.83-2.31a34.24,34.24,0,0,1,8.62-19.56A50.26,50.26,0,0,1,3126,151a76.19,76.19,0,0,1,27.92-4.89Q3170.65,146.09,3183.77,151.88Zm-16.21,97.66q7.71-5.92,7.72-15.18v-9.27a1.14,1.14,0,0,0-1.29-1.28h-18.53q-11.58,0-18.14,4.37a14,14,0,0,0-6.56,12.35,13.36,13.36,0,0,0,4.89,10.94q4.89,4,13.12,4Q3159.84,255.46,3167.56,249.54Z"/><path class="cls-1" d="M3268.94,101.32a3.25,3.25,0,0,1,0,2.57l-21.1,52.24a3.37,3.37,0,0,1-3.6,2.32H3221.6q-3.34,0-2.58-3.35l13.9-52.24a3.38,3.38,0,0,1,3.6-2.57h30.11C3267.83,100.29,3268.6,100.64,3268.94,101.32Z"/><path class="cls-1" d="M3287,277.33q-12.87-4.89-19.94-13.64a30.65,30.65,0,0,1-7.08-19.81V241.3a3.07,3.07,0,0,1,3.09-3.08h28.56a3.07,3.07,0,0,1,3.09,3.08v.26q0,5.67,6.3,9.65t15.83,4q8.74,0,14.15-3.48t5.4-8.61q0-4.63-4.63-7t-15.18-4.89a152.55,152.55,0,0,1-19-5.92q-16.47-5.65-26.25-13.9t-9.78-23.67q0-19,14.8-30.23t39.24-11.2q16.47,0,28.82,5.28t19.17,14.79a36.2,36.2,0,0,1,6.82,21.62,3.07,3.07,0,0,1-3.09,3.09h-27.53a3.07,3.07,0,0,1-3.09-3.09q0-5.65-5.79-9.52t-15.31-3.86q-8.49,0-13.89,3.09t-5.41,8.49q0,5.14,5.28,7.72t17.62,5.4c1.89.52,4,1.07,6.44,1.67s5,1.33,7.72,2.19q18.25,5.4,28.82,13.9t10.55,24.7q0,19.05-15.06,29.72t-40.52,10.68Q3299.82,282.22,3287,277.33Z"/><path class="cls-1" d="M3448.17,279.52a3,3,0,0,1-.9-2.19V103.38a3.07,3.07,0,0,1,3.09-3.09h30.1a3.07,3.07,0,0,1,3.09,3.09V248a1.14,1.14,0,0,0,1.29,1.29H3569a3.07,3.07,0,0,1,3.09,3.09v25a3.07,3.07,0,0,1-3.09,3.09H3450.36A3,3,0,0,1,3448.17,279.52Z"/><path class="cls-1" d="M3674.74,151.88q13.13,5.79,20.46,15.83a37.1,37.1,0,0,1,7.33,22.39v87.23a3.07,3.07,0,0,1-3.09,3.09h-30.11a3.07,3.07,0,0,1-3.08-3.09v-8.49a1,1,0,0,0-.52-1c-.34-.17-.69,0-1,.51q-10.8,14.16-34.73,14.16-20.08,0-32.43-9.78t-12.35-28.82q0-19.81,13.9-30.75t39.62-10.94H3665a1.14,1.14,0,0,0,1.29-1.29v-5.66q0-8.49-5.15-13.25t-15.44-4.76q-8,0-13.25,2.83a13.23,13.23,0,0,0-6.82,8c-.51,1.89-1.63,2.74-3.34,2.57l-31.14-4.12c-2.06-.34-3-1.11-2.83-2.31a34.24,34.24,0,0,1,8.62-19.56A50.26,50.26,0,0,1,3617,151a76.19,76.19,0,0,1,27.92-4.89Q3661.62,146.09,3674.74,151.88Zm-16.21,97.66q7.71-5.92,7.72-15.18v-9.27a1.14,1.14,0,0,0-1.29-1.28h-18.53q-11.58,0-18.14,4.37a14,14,0,0,0-6.56,12.35,13.36,13.36,0,0,0,4.89,10.94q4.89,4,13.12,4Q3650.81,255.46,3658.53,249.54Z"/><path class="cls-1" d="M3808.55,150q2.05,1,1.54,3.86l-5.4,29.34q-.27,3.09-3.61,1.8a28.39,28.39,0,0,0-9-1.29,43.12,43.12,0,0,0-5.66.52,25.27,25.27,0,0,0-15.7,6.82q-6.43,6-6.43,16.08v70.25a3.07,3.07,0,0,1-3.09,3.09h-30.11a3.09,3.09,0,0,1-3.09-3.09V151.24a3.09,3.09,0,0,1,3.09-3.09h30.11a3,3,0,0,1,2.19.9,3,3,0,0,1,.9,2.19V161a1,1,0,0,0,.51,1,.51.51,0,0,0,.77-.26q10.56-15.43,28.31-15.44Q3803.14,146.35,3808.55,150Z"/><path class="cls-1" d="M3902.34,149.05a3,3,0,0,1,2.19-.9h30.1a3.07,3.07,0,0,1,3.09,3.09V268.58q0,33.71-19.43,48.12t-50,14.41a174.83,174.83,0,0,1-20.08-1.29c-1.71-.17-2.57-1.28-2.57-3.34l1-26.51q0-3.35,3.6-2.83a104,104,0,0,0,17,1.55q16.46,0,25.34-7.21t8.88-23.16q0-.76-.51-.9a1.09,1.09,0,0,0-1,.39q-9.8,10.54-28.57,10.55a60.31,60.31,0,0,1-30.75-8.11q-14-8.1-19.94-26.12-3.85-11.82-3.86-30.62,0-20.07,4.63-32.68a51.36,51.36,0,0,1,18.27-25.21,48.83,48.83,0,0,1,29.85-9.53q19.81,0,30.37,11.84a1,1,0,0,0,1,.39q.51-.13.51-.9v-6.18A3,3,0,0,1,3902.34,149.05Zm-.9,64.21a113.94,113.94,0,0,0-.51-12.36,41.53,41.53,0,0,0-1.81-8.23,23.1,23.1,0,0,0-7.72-11.19,21,21,0,0,0-13.38-4.25,20.59,20.59,0,0,0-13.12,4.25,24.92,24.92,0,0,0-8,11.19q-3.6,7.72-3.6,20.84,0,14.42,3.09,20.59a22.22,22.22,0,0,0,8.1,11.19,22.65,22.65,0,0,0,13.77,4.25q8.23,0,13.64-4.25a21.66,21.66,0,0,0,7.46-10.93Q3901.44,226.64,3901.44,213.26Z"/><path class="cls-1" d="M4081.82,222.52a3,3,0,0,1-3.34,3.09H3999c-1,0-1.38.43-1,1.28a45.34,45.34,0,0,0,2.83,10.3q6.69,14.42,27.27,14.41,16.47-.25,26-13.38a2.32,2.32,0,0,1,4.12-.52L4076.68,256a3.58,3.58,0,0,1,1.28,2.32,5.28,5.28,0,0,1-1,2.06,56.14,56.14,0,0,1-21.87,16.34,73.08,73.08,0,0,1-29.33,5.79q-22.14,0-37.44-10a55.66,55.66,0,0,1-22-28.05q-5.41-12.85-5.41-33.71a74.19,74.19,0,0,1,3.86-25,56.52,56.52,0,0,1,20.72-29.07q14.79-10.82,35.12-10.81,25.73,0,41.3,14.92t18.91,39.89A110.88,110.88,0,0,1,4081.82,222.52Zm-82.34-30.11a59.56,59.56,0,0,0-1.8,8.24,1.13,1.13,0,0,0,1.29,1.28h44.51c1,0,1.37-.42,1-1.28q-1.29-7.47-1.29-7.21a22.21,22.21,0,0,0-8.1-12,23.5,23.5,0,0,0-14.28-4.25Q4004.63,177.23,3999.48,192.41Z"/><path class="cls-1" d="M4125.05,277.33q-12.87-4.89-19.94-13.64a30.65,30.65,0,0,1-7.08-19.81V241.3a3.07,3.07,0,0,1,3.09-3.08h28.56a3.07,3.07,0,0,1,3.09,3.08v.26q0,5.67,6.31,9.65t15.82,4q8.74,0,14.15-3.48t5.41-8.61c0-3.09-1.55-5.41-4.63-7s-8.15-3.18-15.19-4.89a153.09,153.09,0,0,1-19-5.92q-16.47-5.65-26.24-13.9t-9.78-23.67q0-19,14.79-30.23t39.25-11.2q16.46,0,28.82,5.28t19.17,14.79a36.26,36.26,0,0,1,6.81,21.62,3.07,3.07,0,0,1-3.08,3.09H4177.8a3.07,3.07,0,0,1-3.08-3.09q0-5.65-5.79-9.52t-15.31-3.86q-8.51,0-13.9,3.09t-5.4,8.49q0,5.14,5.27,7.72t17.63,5.4c1.88.52,4,1.07,6.43,1.67s5,1.33,7.72,2.19q18.27,5.4,28.82,13.9t10.55,24.7q0,19.05-15.05,29.72t-40.53,10.68Q4137.91,282.22,4125.05,277.33Z"/><path class="cls-1" d="M4306.34,176.33a3,3,0,0,1-2.19.9h-24.7a1.14,1.14,0,0,0-1.29,1.29v54.55q0,8.49,3.47,12.61t11.2,4.12h8.49a3.07,3.07,0,0,1,3.09,3.08v24.45q0,2.84-3.09,3.34-10.82.52-15.44.52-21.36,0-31.91-7.08t-10.81-26.63v-69a1.14,1.14,0,0,0-1.28-1.29h-14.67a3.07,3.07,0,0,1-3.09-3.09v-22.9a3.07,3.07,0,0,1,3.09-3.09h14.67a1.13,1.13,0,0,0,1.28-1.28V116.25a3.09,3.09,0,0,1,3.09-3.09h28.82a3.07,3.07,0,0,1,3.09,3.09v30.62a1.13,1.13,0,0,0,1.29,1.28h24.7a3.07,3.07,0,0,1,3.09,3.09v22.9A3,3,0,0,1,4306.34,176.33Z"/><path class="cls-1" d="M2779.78,551.05l-32.17-71.27a1.64,1.64,0,0,0-1.54-1h-23.93a1.14,1.14,0,0,0-1.29,1.28v70.25a3.07,3.07,0,0,1-3.09,3.09h-30.1a3.07,3.07,0,0,1-3.09-3.09V376.33a3.07,3.07,0,0,1,3.09-3.09h73.59q16.47,0,28.95,6.69A47,47,0,0,1,2809.5,399q6.81,12.34,6.82,28.56,0,17.5-8.75,30t-24.45,17.62a1.23,1.23,0,0,0-.77,1.8l35,72.83a4,4,0,0,1,.51,1.54c0,1.38-.94,2.06-2.83,2.06h-31.65A3.63,3.63,0,0,1,2779.78,551.05Zm-58.93-145.38v44a1.14,1.14,0,0,0,1.29,1.29h33.71q10.8,0,17.62-6.44t6.82-16.72q0-10.29-6.82-16.86t-17.62-6.56h-33.71A1.14,1.14,0,0,0,2720.85,405.67Z"/><path class="cls-1" d="M2956.56,495.47a3,3,0,0,1-3.34,3.09H2873.7c-1,0-1.37.43-1,1.29a46.46,46.46,0,0,0,2.83,10.29q6.69,14.42,27.28,14.41,16.47-.25,26-13.38a2.32,2.32,0,0,1,4.12-.52l18.52,18.27a3.57,3.57,0,0,1,1.29,2.32,5.28,5.28,0,0,1-1,2.06,56.14,56.14,0,0,1-21.87,16.34,73.08,73.08,0,0,1-29.33,5.79q-22.14,0-37.45-10a55.76,55.76,0,0,1-22-28q-5.4-12.86-5.4-33.7a74.1,74.1,0,0,1,3.86-25,56.53,56.53,0,0,1,20.71-29.08q14.8-10.82,35.13-10.81,25.72,0,41.3,14.93t18.91,39.88A110.88,110.88,0,0,1,2956.56,495.47Zm-82.34-30.1a59.39,59.39,0,0,0-1.8,8.23,1.13,1.13,0,0,0,1.28,1.29h44.52c1,0,1.37-.43,1-1.29q-1.29-7.46-1.29-7.21a22.21,22.21,0,0,0-8.1-12,23.5,23.5,0,0,0-14.28-4.25Q2879.37,450.18,2874.22,465.37Z"/><path class="cls-1" d="M3060.26,424.84q13.13,5.79,20.46,15.82a37,37,0,0,1,7.33,22.39v87.23a3.07,3.07,0,0,1-3.08,3.09h-30.11a3.07,3.07,0,0,1-3.09-3.09v-8.49a1,1,0,0,0-.51-1c-.35-.17-.69,0-1,.51q-10.82,14.16-34.74,14.16-20.07,0-32.42-9.78t-12.36-28.82q0-19.82,13.9-30.75t39.63-10.94h26.24a1.13,1.13,0,0,0,1.29-1.28V468.2q0-8.51-5.15-13.26t-15.43-4.76q-8,0-13.26,2.83a13.26,13.26,0,0,0-6.82,8c-.51,1.89-1.63,2.75-3.34,2.57l-31.14-4.11c-2.06-.35-3-1.12-2.83-2.32a34.33,34.33,0,0,1,8.62-19.56,50.24,50.24,0,0,1,20.07-13.63,76,76,0,0,1,27.92-4.89Q3047.14,419.05,3060.26,424.84Zm-16.21,97.65a18.31,18.31,0,0,0,7.72-15.18V498a1.14,1.14,0,0,0-1.29-1.28H3032q-11.58,0-18.14,4.37a14,14,0,0,0-6.57,12.35,13.35,13.35,0,0,0,4.89,10.94q4.89,4,13.13,4Q3036.33,528.41,3044.05,522.49Z"/><path class="cls-1" d="M3114.43,552.47a3,3,0,0,1-.9-2.19V376.33a3.07,3.07,0,0,1,3.09-3.09h30.1a3.07,3.07,0,0,1,3.09,3.09v174a3.07,3.07,0,0,1-3.09,3.09h-30.1A3,3,0,0,1,3114.43,552.47Z"/><path class="cls-1" d="M3354.25,403.48a3,3,0,0,1-2.19.9h-84.4a1.14,1.14,0,0,0-1.29,1.29v39.88a1.14,1.14,0,0,0,1.29,1.29H3323a3.07,3.07,0,0,1,3.09,3.09v25A3.07,3.07,0,0,1,3323,478h-55.32a1.14,1.14,0,0,0-1.29,1.29V521a1.13,1.13,0,0,0,1.29,1.28h84.4a3.07,3.07,0,0,1,3.09,3.09v25a3.07,3.07,0,0,1-3.09,3.09H3233.18a3.07,3.07,0,0,1-3.09-3.09V376.33a3.07,3.07,0,0,1,3.09-3.09h118.88a3.07,3.07,0,0,1,3.09,3.09v25A3,3,0,0,1,3354.25,403.48Z"/><path class="cls-1" d="M3400.7,550.28q-12.88-4.89-19.95-13.64a30.63,30.63,0,0,1-7.07-19.81v-2.57a3.07,3.07,0,0,1,3.08-3.09h28.57a3.07,3.07,0,0,1,3.08,3.09v.25q0,5.67,6.31,9.65t15.82,4q8.74,0,14.16-3.47t5.4-8.62q0-4.63-4.63-6.95t-15.18-4.89a152,152,0,0,1-19-5.92q-16.47-5.66-26.25-13.89t-9.78-23.68q0-19,14.8-30.23t39.24-11.2q16.45,0,28.82,5.28t19.17,14.8a36.22,36.22,0,0,1,6.82,21.61,3.07,3.07,0,0,1-3.09,3.09h-27.53a3.07,3.07,0,0,1-3.09-3.09q0-5.65-5.79-9.52t-15.31-3.86q-8.49,0-13.9,3.09t-5.4,8.49q0,5.15,5.27,7.72t17.63,5.4q2.83.78,6.43,1.68c2.4.6,5,1.33,7.72,2.18q18.27,5.41,28.82,13.9t10.55,24.7q0,19.05-15.05,29.72t-40.53,10.68Q3413.56,555.17,3400.7,550.28Z"/><path class="cls-1" d="M3582,449.28a2.94,2.94,0,0,1-2.19.9h-24.7a1.14,1.14,0,0,0-1.29,1.29V506q0,8.49,3.48,12.61t11.19,4.12H3577a3.07,3.07,0,0,1,3.09,3.09v24.44q0,2.84-3.09,3.35-10.8.51-15.44.51-21.36,0-31.9-7.08t-10.81-26.63v-69a1.14,1.14,0,0,0-1.29-1.29h-14.67a3.07,3.07,0,0,1-3.08-3.08V424.19a3.07,3.07,0,0,1,3.08-3.08h14.67a1.14,1.14,0,0,0,1.29-1.29V389.2a3.07,3.07,0,0,1,3.09-3.09h28.82a3.07,3.07,0,0,1,3.08,3.09v30.62a1.14,1.14,0,0,0,1.29,1.29h24.7a3.07,3.07,0,0,1,3.09,3.08V447.1A3,3,0,0,1,3582,449.28Z"/><path class="cls-1" d="M3687.35,424.84q13.13,5.79,20.46,15.82a37,37,0,0,1,7.33,22.39v87.23a3.07,3.07,0,0,1-3.09,3.09H3682a3.07,3.07,0,0,1-3.09-3.09v-8.49a1,1,0,0,0-.51-1c-.35-.17-.69,0-1,.51q-10.82,14.16-34.74,14.16-20.07,0-32.43-9.78t-12.35-28.82q0-19.82,13.9-30.75t39.63-10.94h26.24a1.13,1.13,0,0,0,1.29-1.28V468.2q0-8.51-5.15-13.26t-15.44-4.76q-8,0-13.25,2.83a13.23,13.23,0,0,0-6.82,8c-.51,1.89-1.63,2.75-3.34,2.57l-31.14-4.11c-2.06-.35-3-1.12-2.83-2.32a34.27,34.27,0,0,1,8.62-19.56,50.24,50.24,0,0,1,20.07-13.63,76,76,0,0,1,27.92-4.89Q3674.23,419.05,3687.35,424.84Zm-16.21,97.65a18.31,18.31,0,0,0,7.72-15.18V498a1.14,1.14,0,0,0-1.29-1.28h-18.52q-11.58,0-18.15,4.37a14,14,0,0,0-6.56,12.35,13.35,13.35,0,0,0,4.89,10.94q4.89,4,13.13,4Q3663.42,528.41,3671.14,522.49Z"/><path class="cls-1" d="M3812.8,449.28a2.94,2.94,0,0,1-2.19.9h-24.7a1.14,1.14,0,0,0-1.29,1.29V506q0,8.49,3.48,12.61t11.19,4.12h8.49a3.07,3.07,0,0,1,3.09,3.09v24.44q0,2.84-3.09,3.35-10.8.51-15.44.51-21.36,0-31.91-7.08t-10.8-26.63v-69a1.14,1.14,0,0,0-1.29-1.29h-14.67a3.09,3.09,0,0,1-3.09-3.08V424.19a3.09,3.09,0,0,1,3.09-3.08h14.67a1.14,1.14,0,0,0,1.29-1.29V389.2a3.07,3.07,0,0,1,3.08-3.09h28.82a3.07,3.07,0,0,1,3.09,3.09v30.62a1.14,1.14,0,0,0,1.29,1.29h24.7a3.07,3.07,0,0,1,3.09,3.08V447.1A3,3,0,0,1,3812.8,449.28Z"/><path class="cls-1" d="M3951.88,495.47a3,3,0,0,1-3.34,3.09H3869c-1,0-1.37.43-1,1.29a46.46,46.46,0,0,0,2.83,10.29q6.69,14.42,27.28,14.41,16.47-.25,26-13.38a2.32,2.32,0,0,1,4.12-.52l18.52,18.27a3.57,3.57,0,0,1,1.29,2.32,5.28,5.28,0,0,1-1,2.06,56.14,56.14,0,0,1-21.87,16.34,73.08,73.08,0,0,1-29.33,5.79q-22.14,0-37.45-10a55.76,55.76,0,0,1-22-28q-5.4-12.86-5.4-33.7a74.1,74.1,0,0,1,3.86-25,56.53,56.53,0,0,1,20.71-29.08q14.8-10.82,35.13-10.81,25.72,0,41.3,14.93t18.91,39.88A110.88,110.88,0,0,1,3951.88,495.47Zm-82.34-30.1a59.39,59.39,0,0,0-1.8,8.23,1.13,1.13,0,0,0,1.28,1.29h44.52c1,0,1.37-.43,1-1.29q-1.29-7.46-1.29-7.21a22.21,22.21,0,0,0-8.1-12,23.5,23.5,0,0,0-14.28-4.25Q3874.69,450.18,3869.54,465.37Z"/><path class="cls-1" d="M4132.26,379.93a49,49,0,0,1,19.94,19.69q7.08,12.74,7.08,29.21,0,16.2-7.33,28.56a50,50,0,0,1-20.59,19.17q-13.26,6.82-30.49,6.82h-36.54a1.14,1.14,0,0,0-1.29,1.28v65.62a3.07,3.07,0,0,1-3.09,3.09h-30.1a3.07,3.07,0,0,1-3.09-3.09V376.07a3.07,3.07,0,0,1,3.09-3.08h72.56Q4119.39,373,4132.26,379.93Zm-16.21,67.55q7.2-6.81,7.2-17.88,0-11.33-7.2-18.27t-19-6.95h-32.68a1.14,1.14,0,0,0-1.29,1.29V453a1.14,1.14,0,0,0,1.29,1.29H4097Q4108.84,454.3,4116.05,447.48Z"/><path class="cls-1" d="M4180.25,552.47a2.94,2.94,0,0,1-.9-2.19V376.33a3.07,3.07,0,0,1,3.08-3.09h30.11a3.07,3.07,0,0,1,3.09,3.09v174a3.07,3.07,0,0,1-3.09,3.09h-30.11A3,3,0,0,1,4180.25,552.47Z"/><path class="cls-1" d="M4324.73,424.84q13.13,5.79,20.46,15.82a37,37,0,0,1,7.33,22.39v87.23a3.07,3.07,0,0,1-3.09,3.09h-30.1a3.07,3.07,0,0,1-3.09-3.09v-8.49a1,1,0,0,0-.52-1c-.34-.17-.68,0-1,.51q-10.8,14.16-34.73,14.16-20.09,0-32.43-9.78t-12.35-28.82q0-19.82,13.9-30.75t39.62-10.94H4315a1.13,1.13,0,0,0,1.29-1.28V468.2q0-8.51-5.15-13.26t-15.44-4.76q-8,0-13.25,2.83a13.23,13.23,0,0,0-6.82,8c-.51,1.89-1.63,2.75-3.34,2.57l-31.14-4.11c-2.06-.35-3-1.12-2.83-2.32a34.27,34.27,0,0,1,8.62-19.56A50.24,50.24,0,0,1,4267,423.94a76,76,0,0,1,27.92-4.89Q4311.6,419.05,4324.73,424.84Zm-16.21,97.65q7.71-5.91,7.72-15.18V498a1.14,1.14,0,0,0-1.29-1.28h-18.53q-11.58,0-18.14,4.37a14,14,0,0,0-6.56,12.35,13.35,13.35,0,0,0,4.89,10.94q4.89,4,13.12,4Q4300.8,528.41,4308.52,522.49Z"/><path class="cls-1" d="M4450.18,449.28a2.94,2.94,0,0,1-2.19.9h-24.7a1.14,1.14,0,0,0-1.29,1.29V506q0,8.49,3.47,12.61t11.2,4.12h8.49a3.07,3.07,0,0,1,3.09,3.09v24.44q0,2.84-3.09,3.35-10.82.51-15.44.51-21.36,0-31.91-7.08T4387,520.43v-69a1.14,1.14,0,0,0-1.29-1.29h-14.67a3.07,3.07,0,0,1-3.09-3.08V424.19a3.07,3.07,0,0,1,3.09-3.08h14.67a1.14,1.14,0,0,0,1.29-1.29V389.2a3.07,3.07,0,0,1,3.08-3.09h28.82a3.07,3.07,0,0,1,3.09,3.09v30.62a1.14,1.14,0,0,0,1.29,1.29H4448a3.07,3.07,0,0,1,3.09,3.08V447.1A3,3,0,0,1,4450.18,449.28Z"/><path class="cls-1" d="M4550.53,421.75a3,3,0,0,1,.9,2.19v24.44a3.07,3.07,0,0,1-3.09,3.09h-25a1.13,1.13,0,0,0-1.28,1.29v97.52a3.07,3.07,0,0,1-3.09,3.09H4488.9a3.09,3.09,0,0,1-3.09-3.09V452.76a1.13,1.13,0,0,0-1.28-1.29h-15.18a3.07,3.07,0,0,1-3.09-3.09V423.94a3.07,3.07,0,0,1,3.09-3.09h15.18a1.13,1.13,0,0,0,1.28-1.29V413.9q0-15.94,4.89-24.83t15.83-12.61q10.94-3.72,30.24-3.22h9.77a3.07,3.07,0,0,1,3.09,3.09v20.84a3.07,3.07,0,0,1-3.09,3.09h-8.49c-6,.18-10.16,1.42-12.48,3.73s-3.47,6.57-3.47,12.74v2.83a1.13,1.13,0,0,0,1.28,1.29h25A3,3,0,0,1,4550.53,421.75Z"/><path class="cls-1" d="M4585.91,544.11q-15.43-11.33-21.1-30.88a91.62,91.62,0,0,1-3.6-26.25,95.62,95.62,0,0,1,3.6-27.28q5.93-19,21.36-29.85t37.06-10.8q21.09,0,36,10.68t21.1,29.72a88.25,88.25,0,0,1,4.12,27,90.4,90.4,0,0,1-3.61,26q-5.65,20.07-21,31.52T4623,555.43Q4601.36,555.43,4585.91,544.11Zm51.47-25q5.91-5.14,8.49-14.16a74.28,74.28,0,0,0,2.06-18,69.8,69.8,0,0,0-2.06-18.27,28.64,28.64,0,0,0-8.75-13.64,21.94,21.94,0,0,0-14.41-4.89q-8.74,0-14.54,4.89t-8.36,13.64q-2.07,6.18-2.06,18.27,0,11.58,1.8,18a28.13,28.13,0,0,0,8.62,14.16,22,22,0,0,0,14.8,5.14A21.21,21.21,0,0,0,4637.38,519.15Z"/><path class="cls-1" d="M4788.42,422.91q2.06,1,1.55,3.86l-5.41,29.33q-.26,3.09-3.6,1.8a28.76,28.76,0,0,0-9-1.28,42.92,42.92,0,0,0-5.66.51A25.3,25.3,0,0,0,4750.6,464q-6.43,6-6.44,16.08v70.25a3.07,3.07,0,0,1-3.08,3.09H4711a3.07,3.07,0,0,1-3.09-3.09V424.19a3.07,3.07,0,0,1,3.09-3.08h30.11a3.07,3.07,0,0,1,3.08,3.08V434a1,1,0,0,0,.52,1,.51.51,0,0,0,.77-.26q10.54-15.44,28.3-15.44Q4783,419.3,4788.42,422.91Z"/><path class="cls-1" d="M4984.5,431.14q11.33,12.11,11.32,34v85.17a3.07,3.07,0,0,1-3.08,3.09h-30.11a3.07,3.07,0,0,1-3.09-3.09v-77.2q0-10.54-5.4-16.72t-14.41-6.18a19,19,0,0,0-14.67,6.18q-5.67,6.18-5.66,16.47v77.45a3.07,3.07,0,0,1-3.09,3.09h-29.85a3.09,3.09,0,0,1-3.09-3.09v-77.2q0-10.27-5.66-16.59a18.8,18.8,0,0,0-14.66-6.31,20.07,20.07,0,0,0-13.77,4.89q-5.53,4.89-6.56,13.64v81.57a3.07,3.07,0,0,1-3.09,3.09h-30.11a3.07,3.07,0,0,1-3.08-3.09V424.19a3.07,3.07,0,0,1,3.08-3.08h30.11a3.07,3.07,0,0,1,3.09,3.08v10a1,1,0,0,0,.51,1c.34.17.69,0,1-.52q10.55-15.69,32.68-15.69,12.87,0,22.52,5.4a36.21,36.21,0,0,1,14.79,15.44q.78,1.55,1.8,0a37.17,37.17,0,0,1,15.32-15.7,45.44,45.44,0,0,1,21.74-5.14Q4973.18,419.05,4984.5,431.14Z"/><rect class="cls-1" x="2481.72" width="31.09" height="925.71" rx="7.77"/></g></g></svg>